<?xml version="1.0" encoding="UTF-8"?><svg id="Layer_1" xmlns="http://www.w3.org/2000/svg" xmlns:xlink="http://www.w3.org/1999/xlink" viewBox="0 0 512 512"><defs><style>.cls-1{fill:#2085b9;}.cls-2{fill:#fff;}.cls-3{filter:url(#drop-shadow-1);}.cls-4{fill:#85e98c;}.cls-5{fill:#8548b4;}.cls-6{fill:#e13353;}.cls-7{fill:#fedf43;}.cls-8{fill:#ff9037;}.cls-9{clip-path:url(#clippath);}</style><filter id="drop-shadow-1" x="-488.29" y="-935.05" width="2662.95" height="2382.24" filterUnits="userSpaceOnUse"><feOffset dx="0" dy="0"/><feGaussianBlur result="blur" stdDeviation="25"/><feFlood flood-color="#000" flood-opacity=".75"/><feComposite in2="blur" operator="in"/><feComposite in="SourceGraphic"/></filter><clipPath id="clippath"><path class="cls-2" d="M225.05,438.27c6.42,10.97,18.11,17.67,30.78,17.67,12.67,0,24.36-6.69,30.78-17.67L479.33,109.93c6.51-11.06,6.51-24.71.18-35.78s-18.2-17.93-30.96-17.93H63.11c-12.76,0-24.63,6.87-30.96,17.93-6.33,11.06-6.25,24.8.18,35.78l192.72,328.34h0Z"/></clipPath></defs><g class="cls-3"><path class="cls-2" d="M225.05,438.27c6.42,10.97,18.11,17.67,30.78,17.67,12.67,0,24.36-6.69,30.78-17.67L479.33,109.93c6.51-11.06,6.51-24.71.18-35.78s-18.2-17.93-30.96-17.93H63.11c-12.76,0-24.63,6.87-30.96,17.93-6.33,11.06-6.25,24.8.18,35.78l192.72,328.34h0Z"/><g class="cls-9"><rect class="cls-2" x="-488.29" y="-935.05" width="2662.95" height="2382.24"/><path class="cls-5" d="M-66.77,236.57l1669.19-749.09V977.71L-66.77,236.57h0Z"/><path class="cls-1" d="M-66.77,236.57l1669.19-749.09V729.33L-66.77,236.57h0Z"/><path class="cls-4" d="M-66.77,236.57l1669.19-749.09V480.96L-66.77,236.57h0Z"/><path class="cls-7" d="M-66.77,236.57l1669.19-749.09V232.59l-1669.19,3.97h0Z"/><path class="cls-8" d="M-66.77,236.57l1669.19-749.09V-15.78L-66.77,236.57h0Z"/><path class="cls-6" d="M-66.77,236.57l1669.19-749.09v248.37L-66.77,236.57h0Z"/></g></g></svg>